<svg id="Layer_1" data-name="Layer 1" xmlns="http://www.w3.org/2000/svg" viewBox="0 0 1080 1080"><defs><style>.cls-1{fill:#ffffff;}</style></defs><path class="cls-1" d="M189.209,982.76c6.66.407,9.971.786,13.281.787q328.58.033,657.158-.145c8.806-.009,12.248,2.013,12.216,11.6-.113,34.318.238,34.317-33.977,34.316l-638.454-.022H186.886c-.255-5.025-.613-8.8-.614-12.583q-.045-180.069.178-360.138a36.837,36.837,0,0,1,4.787-17.514q148.07-256.519,296.634-512.752C534.58,45.8,630.391,21.42,711.688,67.464c57.7,32.68,87.934,81.005,88.77,147.139.341,26.954-7.237,52.386-20.742,75.758Q630.66,548.328,481.208,806.066a44.1,44.1,0,0,1-15.454,14.989Q333.625,898.316,201.127,974.947C197.967,976.782,195,978.949,189.209,982.76ZM441.578,745.382l205.95-355.9-177.609-102.6L264.1,642.616Zm245.7-424.3c13.84-24.326,27.25-46.7,39.444-69.718,9.2-17.371,10.931-36.338,7.471-55.711-6.547-36.66-29.77-59.354-61.747-75.538-38.26-19.363-83.307-13.162-112.6,18.209-9.937,10.643-17.117,23.982-24.854,36.522-8.68,14.066-16.564,28.623-25.181,43.639ZM426.448,768.848l-175.3-101.4c0,40.6-.117,78.258.249,115.907.025,2.651,3.042,6.209,5.622,7.751q29.541,17.652,59.581,34.458c2.879,1.6,7.967,2.371,10.543.906C359.537,808.049,391.659,789.144,426.448,768.848Z"/></svg>