<svg id="Layer_1" data-name="Layer 1" xmlns="http://www.w3.org/2000/svg" viewBox="0 0 1080 1080"><defs><style>.cls-1{fill:#ffffff;}</style></defs><path class="cls-1" d="M506.675,443.394c84.818,0,169.638-.193,254.454.238a97.9,97.9,0,0,1,32.531,5.52c14.931,5.456,21.636,17.355,19.534,33.81-5.588,43.744-10.87,87.527-16.359,131.283q-11.541,92-23.209,183.993-11.637,92-23.321,183.994c-1.4,11.046-2.257,22.192-4.281,33.122-3.946,21.3-19.753,34.323-41.6,34.339q-192.745.138-385.492.021c-25.458-.012-41.689-15.179-45.3-41.579-7.14-52.2-14.225-104.414-21.612-156.582q-25.674-181.294-51.544-362.561c-3.833-27.162,8.521-42.543,36.543-44.511,19.721-1.384,39.588-.859,59.391-.882q105.133-.122,210.268-.031ZM404.642,923.078c-1.539-14.6-3.025-30.223-4.861-45.808q-8.267-70.159-16.756-140.293c-6.89-57.371-13.481-114.781-20.876-172.087-3.11-24.1-21.29-39.519-40.512-36.315-19.69,3.283-32.021,22.739-29.305,46.447,4.092,35.707,8.143,71.419,12.434,107.1q14.795,123.037,29.792,246.051c2.536,20.982,19.678,37,38.46,35.757C391.269,962.727,404.743,945.759,404.642,923.078ZM721.1,566.688c.309-19.1-13.258-36.173-31.149-38.341-17.586-2.131-35.283,11.8-38.4,31.587-3.624,23.013-6.285,46.184-9.053,69.325q-14.9,124.567-29.52,249.169c-1.941,16.6-4.008,33.269-4.31,49.937A35.086,35.086,0,0,0,635,963.242c13.342,3.26,31.347-4.9,38.213-18.9,3.481-7.1,5.066-15.446,6.032-23.407q13.65-112.512,26.747-225.09C711.034,653.077,716,610.3,721.1,566.688ZM541.487,746.666q0-33.509-.006-67.016c-.056-38.076.154-76.157-.354-114.228-.251-18.83-11.764-33.761-27.41-37.738A31.9,31.9,0,0,0,476.851,545a59.036,59.036,0,0,0-5.283,24.778q-.337,174.393.2,348.785a71.373,71.373,0,0,0,2.5,19.435c4.123,14.273,13.5,23.711,28.62,25.824,14.858,2.076,26.252-4.949,32.728-17.414,3.98-7.66,5.591-17.328,5.663-26.115C541.754,862.422,541.523,804.543,541.487,746.666Z"/><path class="cls-1" d="M316.064,304.028l79.861-38.285a267.406,267.406,0,0,0-45.484-83.651c-55.166-69.306-128.42-88.839-212.388-72.724-34.46,6.614-67.836,18.869-98.819,27.733C155.193,6.669,407.15-24.194,521.152,206.6l74.757-34.937-79.35,225.052Z"/><path class="cls-1" d="M850.368,305.281c11.855-8.145,22.715-16.362,34.295-23.393,18.885-11.466,38.6-7.614,50.818,10.445,13.077,19.318,25.43,39.162,37.284,59.258,9.606,16.287,6.439,35.767-8.226,46.612-12.072,8.928-25.72,15.727-40.552,24.6,7.315,12.291,15.419,26.543,24.124,40.419,28.295,45.1,56.923,90,85.181,135.122,10.7,17.085,9.759,32.886-1.841,46.375-10,11.629-26.853,16.166-41.488,8.642-7.605-3.91-14.572-11.065-19.229-18.4Q856.172,454.427,742.354,273.428c-22.73-36.04-45.721-71.922-67.915-108.289-9.41-15.419-5.49-34.183,7.649-45.559,12.937-11.2,31.47-12.88,44.858-2.55,6.218,4.8,11.109,11.786,15.388,18.548,33.1,52.305,65.875,104.815,98.843,157.2C844.093,297.414,847.666,301.633,850.368,305.281Z"/></svg>