<svg id="Layer_1" data-name="Layer 1" xmlns="http://www.w3.org/2000/svg" viewBox="0 0 1080 1080"><defs><style>.cls-1{fill:#ffffff;}.cls-2{fill:#fff;}</style></defs><path class="cls-1" d="M535.994,963.851c-8.628,45.46-8.628,45.46-50.979,45.46q-150,0-300-.013c-36.362-.013-56.773-20.273-56.784-57.12q-.114-380.766.066-761.532c.013-30.9,14.377-46.344,45.717-47.5,28.755-1.063,57.579-.226,87.2-.226V185.95H174.567v777.9Z"/><path class="cls-1" d="M561.7,108.317H671.547v110.45H288.891v-109.2h108.4c25.587-64.5,50.937-88.444,88.218-84.861C526.418,28.637,550.215,54.184,561.7,108.317ZM458.257,97.51c.339,7.8,7.441,16.909,22.4,17.048,14.907.138,23.728-9.666,24.023-23.306.3-13.764-8.5-24.115-23.229-23.8C467.771,67.742,457.852,74.811,458.257,97.51Z"/><path class="cls-1" d="M832.182,730l-41.5,11V186.869H700.319V142.547c29.477,0,58.753-1.019,87.926.278,30.929,1.375,44.918,14.957,45.1,43.189.5,78.055.208,156.115.153,234.174C833.5,423.626,832.746,725.168,832.182,730Z"/><path class="cls-1" d="M548.43,424.6c-31.377,0-62.761-.4-94.127.191-13.354.25-19.17-4.379-18.576-18.171.537-12.484-.272-24.218,17.627-24.147,64.147.253,128.3.4,192.442-.132,16.837-.141,16.8,9.679,17.108,21.806.335,13.269-2.456,21.09-18.258,20.691C612.592,424.032,580.5,424.6,548.43,424.6Z"/><path class="cls-1" d="M549.335,584.13c-31.448,0-62.908-.537-94.337.237-14.793.364-19.7-5.335-19.37-19.711.316-13.725,2.441-22.886,19.3-22.765q94.338.683,188.682,0c16.8-.121,19.081,8.91,19.369,22.7.3,14.31-4.456,20.14-19.312,19.773C612.243,583.589,580.782,584.13,549.335,584.13Z"/><path class="cls-1" d="M549.194,735.24c-30.747,0-61.511-.606-92.235.236-17.127.47-21.115-7.414-21.441-22.9-.349-16.629,7.193-19.738,21.658-19.616q92.235.779,184.478-.015c14.708-.133,21.723,3.472,21.444,19.851-.268,15.719-4.763,23.141-21.67,22.683C610.7,734.644,579.941,735.24,549.194,735.24Z"/><path class="cls-1" d="M370.11,703.643c-.554,24.053-22.63,46.066-45.447,45.317-23.518-.772-45.948-23.9-45.065-46.476.892-22.793,22.474-43.959,44.942-44.074C347.4,658.292,370.624,681.348,370.11,703.643Z"/><path class="cls-1" d="M370,554.112a45.362,45.362,0,0,1-44.593,45.731c-23.34.411-46.051-22.252-45.585-45.486.479-23.836,20.625-43.032,45.121-42.994C348.716,511.4,369.685,531.295,370,554.112Z"/><path class="cls-1" d="M323.514,439.461c-23.049-.194-43.534-21.07-43.886-44.723-.334-22.486,21.187-42.889,45.241-42.892,25.5,0,45.732,19.926,45.132,44.453C369.389,421.3,349.589,439.681,323.514,439.461Z"/><path class="cls-2" d="M458.257,97.51c-.405-22.7,9.514-29.768,23.2-30.059,14.724-.314,23.527,10.037,23.229,23.8-.3,13.64-9.116,23.444-24.023,23.306C465.7,114.419,458.6,105.311,458.257,97.51Z"/><path class="cls-1" d="M809.3,939.917c-3.819,9.261-7.907,17.851-10.914,26.8-3.8,11.312-12.745,12.731-22.706,14.318-25.586,4.076-51,9.232-76.584,13.307-8.507,1.354-17.331.684-26.006,1.032-4.735.19-9.555.346-9.5-6.238.046-6.028-4.11-13.879,5.548-16.5,9.953-2.7,12.34-9.873,12.609-18.976.942-31.872-10.345-44.808-42.328-45.984a115.9,115.9,0,0,0-34.8,3.719c-13.017,3.619-14.458,12.328-6.087,22.716,1.627,2.018,3.309,5.713,2.527,7.648A200.4,200.4,0,0,1,590.021,964.1c-.941,1.688-3.651,2.39-5.548,3.546-1.07-1.934-3.035-3.847-3.081-5.8-1.431-60.662,3.263-120.1,37.215-173.082,2.409-3.76,7.75-7.926,11.785-7.986,24.928-.367,49.982-.939,74.782,1.119,28.962,2.4,27.539,3.439,25.305,32.484-2.009,26.126-.729,52.509-.792,78.779-.069,28.763-.016,57.526-.016,87.182,16.735-2.844,35.025-5.724,53.182-9.282,2.723-.534,5.689-3.818,7.032-6.568a88.169,88.169,0,0,0,6.361-17.512C797.8,940.646,801.024,938.029,809.3,939.917Zm-204.93-99.205c33.3,4.879,63.45,8.6,93.93,4.121,3.115-.458,7.146-4.814,8.087-8.12a278.7,278.7,0,0,0,7.943-36.386c.4-2.752-4.051-8.793-6.579-8.974-24.5-1.753-49.058-2.719-73.613-3.459-2.532-.076-6.445,2.142-7.524,4.362C619.253,807.4,612.482,822.831,604.367,840.712Zm44.875,41.454c-.8-8.224-4.908-13.231-13.016-13.69-7.288-.412-13.512,6.667-12.87,14.4.664,8,5.047,12.828,13.367,12.58C645.207,895.2,648.522,889.584,649.242,882.166Zm36.489-9.156-4.584.105c-2.527,4.241-6.753,8.326-7.164,12.763-.546,5.9,4,11.244,10.4,9.382,3.8-1.106,8.812-6.483,8.84-9.975C693.251,881.213,688.44,877.1,685.731,873.01Zm-83.446,23.547c3.891-6.27,8.285-10.221,7.87-13.576-.4-3.264-5.879-8.346-8.865-8.171-3.115.183-8.149,5.628-8.241,8.888C592.953,887.1,597.754,890.634,602.285,896.557Z"/><path class="cls-1" d="M606.027,792.736c-1.721-1.673-7.35-4.714-7.377-7.8-.032-3.615,4.105-9.274,7.681-10.548,11.954-4.258,24.46-9.743,36.762-9.76,50.59-.07,101.191,1.418,151.768,2.988,13.786.428,27.6,2.564,41.22,4.971,13.28,2.347,25.08,8.292,32.965,19.819a12.451,12.451,0,0,1,1.762,9.324c-.43,1.478-5.277,2.559-8.017,2.348-44.517-3.427-88.6-7.626-131.756-21.636-33.029-10.721-68.462-10.6-103-5.439C620.774,778.083,614.589,786.368,606.027,792.736Z"/><path class="cls-1" d="M587.739,993.069c2.757-10.574,4.186-21.743,8.591-31.579,6.217-13.882,20.645-18.93,38.3-15.806,12.712,2.249,19.909,11.063,22,26.731,2,14.973,2.479,29.773-4.446,43.822-7.431,15.074-20.62,22.623-35.239,20.222-16.965-2.786-25.574-12.072-26.878-29.326-.34-4.489-.051-9.026-.051-13.54Zm30.406-1.793c1.053,7.057.823,12.232,2.744,16.42,1.762,3.841,5.461,8.534,9.028,9.247,2.752.55,8.845-3.961,9.583-7.125a144.5,144.5,0,0,0,3.778-31.211c.029-3.035-4.993-8.03-8.345-8.654-3.384-.63-9.186,2.054-11.047,5.067C620.623,980.3,619.56,986.945,618.145,991.276Z"/><path class="cls-1" d="M732.21,976.638V944.266c15.174-2.748,15.274-2.744,15.832-18.322.259-7.244.044-14.5.044-22.295h64.492c-.7,10.855-1.326,20.443-2.011,30.993-13-1.5-17.5,6.828-19.6,17.441-2.142,10.8-8.065,16.543-19.453,17.814C758.493,971.349,745.64,974.267,732.21,976.638Z"/><path class="cls-1" d="M858.289,871.647c-8.812.937-19.412-.972-24.3,3.443-4.838,4.369-3.91,15.121-5.683,23.924H804.7c0-6.069.053-11.511-.011-16.953-.139-11.832-1.96-13.671-14.089-13.845-10.4-.149-20.806-.368-31.194-.052-6.031.184-8.434-2.451-7.736-8,.65-5.172-3.289-12.974,6.2-13.79a255.311,255.311,0,0,1,28.028-.9c18.009.437,36.007,1.364,54.006,2.173C857.874,848.457,861.348,852.933,858.289,871.647Z"/><path class="cls-1" d="M671.042,964.085c-8.456-24.448-8.48-23.826-35.512-24.857-10.328-.394-21.385-2.627-30.537-7.182-9.707-4.832-8.494-13.636,1.7-17.331,17.788-6.45,36.127-7.088,53.786.287,14.533,6.07,21.837,34.054,13.329,48.218C673.432,963.84,671.98,963.813,671.042,964.085Z"/><path class="cls-1" d="M809.642,976.385c1.08-6.768,1.643-15.123,3.875-23.006,2.5-8.817,8.983-13.843,18.632-13.3,10.121.574,15.258,7.176,15.491,16.283a280.673,280.673,0,0,1-1.749,40.263c-.991,8.314-6.275,15.024-15.81,15.074-9.387.05-15.841-4.993-17.863-14.268C810.83,991.071,810.583,984.458,809.642,976.385Zm28.11-17.171c-8.259,9.872-8.831,29.79-1.595,37.813C843.974,987.387,844.9,971,837.752,959.214Z"/><path class="cls-1" d="M869.83,946.548c-9.956,1.722-16.919.356-24.524-4.867-6.156-4.229-15.219-4.225-23.434-6.2,2.327-9.033,5.029-19.529,8.068-31.327l33.358-3.5V808.426l3.5-.3c.383,2.609,1.116,5.22,1.094,7.825-.212,24.955-.286,49.917-.988,74.861-.27,9.6-2.471,19.126-2.969,28.728-.259,4.983-4.28,11.415,4.391,14.72C870.035,934.907,869.346,941.836,869.83,946.548Z"/><path class="cls-1" d="M734.5,899.367c-.91-16.877-1.99-33.746-2.633-50.633a59.167,59.167,0,0,1,1.4-16.46c.695-2.774,4.125-4.861,6.32-7.259,2.961,2.738,7.611,5.022,8.5,8.317,1.379,5.142.385,10.979.083,16.5q-2.038,37.31-4.284,74.609c-.184,3.1-.082,6.455-1.267,9.191-.952,2.2-3.654,3.635-5.579,5.41-1.587-2.146-4.541-4.3-4.533-6.437.043-11.063.843-22.122,1.379-33.183Z"/><path class="cls-1" d="M801.9,898.633H750.98l-.126-2.256h45.9v-12.36H751.4l-.122-3.3h44.64q.256-2.274.514-4.546c-4.392-.511-8.773-1.265-13.18-1.469-5.539-.257-11.1-.062-16.651-.062H751.175q-.21-1.173-.419-2.344c1.864-.6,3.72-1.674,5.6-1.707,10.058-.175,20.121-.119,30.182-.089,12.748.038,15.225,2.475,15.363,15.053C801.941,889.655,801.9,893.759,801.9,898.633Z"/><path class="cls-1" d="M837.766,895.539l20.471,1.152-.195,3.755c-7.611-.835-16.741.512-22.259-3.33-3.276-2.28-3.441-16.808-.476-18.688,6.572-4.167,16-3.831,24.262-5.332l.545,4.439L839.9,878.923l-.1,1.371,19.907,1.863-.2,2.613H838.9C838.5,888.583,838.191,891.487,837.766,895.539Z"/><path class="cls-1" d="M792.932,842.056V800.73l2.271-.055v41.343Z"/></svg>